<svg xmlns="http://www.w3.org/2000/svg" viewBox="0 0 540 300" role="img" aria-labelledby="title">
  <title id="title">Three child-drawn toy soldiers standing guard</title>
  <path d="M20 271c151-11 350 9 500-3" fill="none" stroke="#173f61" stroke-width="8" stroke-linecap="round" opacity=".35"/>
  <defs>
    <g id="toy-soldier">
      <path d="M48 48c8-24 69-32 83 2l-3 37H52z" fill="var(--uniform)" stroke="#173f61" stroke-width="7" stroke-linejoin="round"/>
      <path d="M46 75c30-6 60-5 89 2" fill="none" stroke="var(--trim)" stroke-width="8" stroke-linecap="round"/>
      <path d="M62 83c-1 36 11 50 30 51 22 0 32-18 29-51" fill="#efb58b" stroke="#173f61" stroke-width="7"/>
      <circle cx="77" cy="102" r="4" fill="#173f61"/><circle cx="105" cy="102" r="4" fill="#173f61"/><path d="M80 120c8 5 16 5 24 0" fill="none" stroke="#173f61" stroke-width="5" stroke-linecap="round"/>
      <path d="M48 144l-25 51 17 8 29-45M124 145l28 49-17 10-29-46" fill="var(--arms)" stroke="#173f61" stroke-width="7" stroke-linejoin="round"/>
      <path d="M59 137l62-1 15 73-91 1z" fill="var(--uniform)" stroke="#173f61" stroke-width="7" stroke-linejoin="round"/>
      <path d="M90 139l1 68M65 158l52 1M69 178l43 2" fill="none" stroke="var(--trim)" stroke-width="6" stroke-linecap="round"/>
      <circle cx="91" cy="151" r="4" fill="#173f61"/><circle cx="91" cy="171" r="4" fill="#173f61"/>
      <path d="M63 211l-9 67 23 1 14-57 12 57 24-1-10-68" fill="var(--legs)" stroke="#173f61" stroke-width="7" stroke-linejoin="round"/>
      <path d="M48 279l30 1M102 279l28-1" fill="none" stroke="#173f61" stroke-width="9" stroke-linecap="round"/>
    </g>
  </defs>
  <g transform="translate(26 27) scale(.78)" style="--uniform:#c74b3d;--trim:#f4c45d;--arms:#267da7;--legs:#267da7"><use href="#toy-soldier"/></g>
  <g transform="translate(194 19) scale(.82)" style="--uniform:#2485b5;--trim:#f4c45d;--arms:#c74b3d;--legs:#c74b3d"><use href="#toy-soldier"/></g>
  <g transform="translate(373 27) scale(.78)" style="--uniform:#f3c64f;--trim:#c74b3d;--arms:#267da7;--legs:#267da7"><use href="#toy-soldier"/></g>
</svg>
